<svg width="128" height="128" viewBox="0 0 128 128" fill="none" xmlns="http://www.w3.org/2000/svg">
<path d="M21.0031 43.0032C16.9501 43.0012 13.6651 46.2942 13.6641 50.3442L13.6691 81.0802C13.6684 82.0446 13.8579 82.9997 14.2266 83.8908C14.5953 84.7819 15.1361 85.5916 15.818 86.2736C16.4998 86.9556 17.3095 87.4965 18.2005 87.8653C19.0916 88.2342 20.0467 88.4237 21.0111 88.4232C21.9753 88.4243 22.9303 88.235 23.8214 87.8664C24.7124 87.4978 25.5219 86.9569 26.2036 86.2749C26.8852 85.5929 27.4256 84.783 27.7938 83.8918C28.1619 83.0006 28.3506 82.0455 28.3491 81.0812V50.3402C28.3469 48.3934 27.572 46.5271 26.1946 45.1513C24.8171 43.7756 22.9499 43.0029 21.0031 43.0032ZM80.1961 15.4012L85.3191 6.04621C85.4496 5.8089 85.4806 5.52951 85.4055 5.26932C85.3303 5.00913 85.155 4.78937 84.9181 4.65821C84.6806 4.52981 84.4021 4.50054 84.1432 4.57679C83.8842 4.65304 83.666 4.82862 83.5361 5.06521L78.3611 14.5182C74.0071 12.5802 69.1341 11.4942 63.9781 11.4992C58.8361 11.4942 53.9651 12.5772 49.6291 14.5042L44.4481 5.07521C44.3848 4.95752 44.2988 4.85354 44.1951 4.7693C44.0914 4.68507 43.972 4.62225 43.8438 4.58449C43.7157 4.54673 43.5813 4.53477 43.4485 4.54932C43.3156 4.56386 43.187 4.60461 43.0701 4.66921C42.952 4.73233 42.8477 4.81836 42.7632 4.92227C42.6788 5.02618 42.6159 5.14589 42.5783 5.27439C42.5407 5.40289 42.5291 5.5376 42.5441 5.67064C42.5592 5.80368 42.6007 5.93238 42.6661 6.04921L47.7911 15.3982C37.7211 20.5912 30.9171 30.4812 30.9231 41.8362L97.0411 41.8282C97.0431 30.4772 90.2511 20.6072 80.1961 15.4012ZM48.9401 29.8582C48.2048 29.8578 47.4997 29.5653 46.98 29.0451C46.4604 28.5249 46.1687 27.8195 46.1691 27.0842C46.1695 26.3489 46.4619 25.6439 46.9822 25.1242C47.5024 24.6045 48.2077 24.3128 48.9431 24.3132C49.6785 24.3145 50.3834 24.6072 50.9035 25.1271C51.4236 25.647 51.7165 26.3518 51.7181 27.0872C51.7167 27.8229 51.4234 28.528 50.9025 29.0476C50.3816 29.5672 49.6758 29.8587 48.9401 29.8582ZM79.0461 29.8532C78.682 29.8535 78.3215 29.782 77.9852 29.6428C77.6488 29.5037 77.3432 29.2996 77.0857 29.0423C76.8283 28.7849 76.6241 28.4793 76.4848 28.143C76.3455 27.8067 76.2739 27.4462 76.2741 27.0822C76.278 26.3475 76.5712 25.644 77.0903 25.124C77.6093 24.604 78.3124 24.3095 79.0471 24.3042C79.7811 24.3103 80.4832 24.6054 81.0012 25.1256C81.5191 25.6458 81.8112 26.3491 81.8141 27.0832C81.8145 27.4469 81.7431 27.8071 81.6042 28.1433C81.4653 28.4794 81.2614 28.7848 81.0043 29.0421C80.7472 29.2993 80.442 29.5034 80.1059 29.6426C79.7699 29.7818 79.4098 29.8533 79.0461 29.8532ZM31.1931 44.3902L31.2041 92.0252C31.2029 93.054 31.4047 94.0729 31.7978 95.0236C32.191 95.9743 32.7679 96.8381 33.4954 97.5656C34.2229 98.293 35.0868 98.8698 36.0376 99.2628C36.9883 99.6559 38.0073 99.8575 39.0361 99.8562L44.3691 99.8582L44.3751 116.122C44.3741 120.172 47.6661 123.464 51.7101 123.464C55.7661 123.464 59.0521 120.169 59.0531 116.117L59.0491 99.8572L68.9581 99.8542L68.9621 116.117C68.9621 120.164 72.2551 123.463 76.3001 123.455C80.3561 123.458 83.6441 120.163 83.6431 116.111L83.6381 99.8522L88.9901 99.8482C90.019 99.8483 91.0378 99.6458 91.9885 99.2522C92.9391 98.8586 93.8029 98.2816 94.5305 97.5541C95.2582 96.8266 95.8354 95.963 96.2293 95.0125C96.6231 94.0619 96.8259 93.0431 96.8261 92.0142L96.8171 44.3792L31.1931 44.3902ZM114.327 50.3332C114.327 49.3692 114.137 48.4147 113.768 47.5241C113.4 46.6335 112.859 45.8243 112.177 45.1428C111.495 44.4612 110.686 43.9207 109.795 43.552C108.905 43.1834 107.95 42.9938 106.986 42.9942C102.933 42.9902 99.6491 46.2812 99.6491 50.3362L99.6551 81.0742C99.6544 82.0382 99.8438 82.9928 100.212 83.8835C100.581 84.7742 101.122 85.5835 101.803 86.2651C102.485 86.9468 103.294 87.4873 104.185 87.8559C105.075 88.2245 106.03 88.4139 106.994 88.4132C107.958 88.4133 108.913 88.2235 109.804 87.8544C110.694 87.4854 111.503 86.9444 112.185 86.2625C112.866 85.5805 113.407 84.771 113.775 83.88C114.144 82.9891 114.333 82.0343 114.332 81.0702L114.327 50.3332Z" fill="#A4C439"/>
</svg>
