<svg width="128" height="128" viewBox="0 0 128 128" fill="none" xmlns="http://www.w3.org/2000/svg">
<path fill-rule="evenodd" clip-rule="evenodd" d="M64.0957 126.225C98.3707 126.173 126.117 98.2915 126.117 63.8995C126.117 30.0665 98.4987 2.20251 65.5037 1.61351C30.8517 0.995512 1.89572 29.1135 1.88672 63.2105C1.87672 98.2895 29.4987 126.275 64.0957 126.225ZM63.9947 4.63051C96.9017 4.61951 123.121 31.3555 123.111 64.9105C123.1 96.5895 96.1857 123.091 64.0187 123.098C31.2477 123.105 4.89372 96.5345 4.89472 63.4895C4.89672 31.2965 31.6607 4.64151 63.9947 4.63051ZM39.1587 35.8965C39.6967 37.6895 38.1907 38.3135 36.5897 38.4385C34.9047 38.5685 33.2207 38.6955 31.2647 38.8445C37.7207 58.0785 44.0797 77.0275 50.5897 96.4175C51.0537 95.6585 51.2447 95.4445 51.3287 95.1945C54.9027 84.5125 58.4967 73.8375 61.9797 63.1255C62.2977 62.1485 62.1397 60.8545 61.7917 59.8505C59.9487 54.5305 57.7407 49.3265 56.1247 43.9425C55.0197 40.2565 53.5537 37.8715 49.1967 38.2985C48.4547 38.3715 47.5487 36.7745 46.7177 35.9495C47.7227 35.3495 48.7207 34.2455 49.7347 34.2305C58.6069 34.0942 67.4806 34.0968 76.3527 34.2385C77.3707 34.2555 78.3687 35.3885 79.3737 36.0035C78.4937 36.8075 77.7347 38.0135 76.7057 38.3245C75.0547 38.8225 73.2237 38.7285 71.2477 38.9045L90.5967 96.4645C93.5277 86.7285 96.2547 77.7885 98.9067 68.8255C101.273 60.8245 99.8627 53.3525 95.5847 46.3055C94.2987 44.1865 92.7187 42.1305 91.9897 39.8195C91.1617 37.1905 90.4737 34.1975 90.9127 31.5605C91.6577 27.0915 95.0867 24.8725 99.7267 24.4475C74.3347 0.881514 34.4327 9.31751 19.7297 34.9225C25.3897 34.6615 30.7937 34.3185 36.2017 34.2445C37.2237 34.2315 38.9187 35.0955 39.1587 35.8965ZM49.2757 113.868C49.1577 114.213 49.1507 114.597 49.0577 115.17C60.0007 118.204 70.7327 117.985 81.7167 114.284L64.9367 68.3235C59.5667 83.9345 54.4167 98.8985 49.2757 113.868ZM40.8197 111.79L15.5387 42.4395C4.13372 64.7175 12.8097 98.7075 40.8197 111.79ZM117.248 67.2275C118.05 56.6935 114.416 42.1085 111.278 40.1025C110.928 43.9775 111.172 48.2885 110.06 52.2165C107.443 61.4715 104.243 70.5655 101.161 79.6845C97.8107 89.5965 94.3287 99.4635 90.9037 109.351C106.996 99.8115 115.839 85.7325 117.248 67.2275Z" fill="#494949"/>
</svg>
